<svg width="2026" height="711" xmlns="http://www.w3.org/2000/svg" xmlns:xlink="http://www.w3.org/1999/xlink" xml:space="preserve" overflow="hidden"><g transform="translate(-554 -1796)"><g><path d="M989.938 1873.5 989.938 2387.04 983.063 2387.04 983.063 1873.5ZM972.75 1873.5C972.75 1865.91 978.906 1859.75 986.5 1859.75 994.094 1859.75 1000.25 1865.91 1000.25 1873.5 1000.25 1881.09 994.094 1887.25 986.5 1887.25 978.906 1887.25 972.75 1881.09 972.75 1873.5Z" fill="#F3D776" fill-rule="nonzero" fill-opacity="1"/><path d="M591.938 2031.5 591.938 2384.36 585.063 2384.36 585.062 2031.5ZM574.75 2031.5C574.75 2023.91 580.906 2017.75 588.5 2017.75 596.094 2017.75 602.25 2023.91 602.25 2031.5 602.25 2039.09 596.094 2045.25 588.5 2045.25 580.906 2045.25 574.75 2039.09 574.75 2031.5Z" fill="#F3D776" fill-rule="nonzero" fill-opacity="1"/><path d="M2182.94 2215.5 2182.94 2385.12 2176.06 2385.12 2176.06 2215.5ZM2165.75 2215.5C2165.75 2207.91 2171.91 2201.75 2179.5 2201.75 2187.09 2201.75 2193.25 2207.91 2193.25 2215.5 2193.25 2223.09 2187.09 2229.25 2179.5 2229.25 2171.91 2229.25 2165.75 2223.09 2165.75 2215.5Z" fill="#F3D776" fill-rule="nonzero" fill-opacity="1"/><path d="M1784.94 2128.5 1784.94 2386.63 1778.06 2386.63 1778.06 2128.5ZM1767.75 2128.5C1767.75 2120.91 1773.91 2114.75 1781.5 2114.75 1789.09 2114.75 1795.25 2120.91 1795.25 2128.5 1795.25 2136.09 1789.09 2142.25 1781.5 2142.25 1773.91 2142.25 1767.75 2136.09 1767.75 2128.5Z" fill="#F3D776" fill-rule="nonzero" fill-opacity="1"/><path d="M1389.94 2031.5 1389.94 2384.69 1383.06 2384.69 1383.06 2031.5ZM1372.75 2031.5C1372.75 2023.91 1378.91 2017.75 1386.5 2017.75 1394.09 2017.75 1400.25 2023.91 1400.25 2031.5 1400.25 2039.09 1394.09 2045.25 1386.5 2045.25 1378.91 2045.25 1372.75 2039.09 1372.75 2031.5Z" fill="#F3D776" fill-rule="nonzero" fill-opacity="1"/><text fill="#000000" fill-opacity="1" font-family="Apple Symbols,Apple Symbols_MSFontService,sans-serif" font-style="normal" font-variant="normal" font-weight="700" font-stretch="normal" font-size="60" text-anchor="start" direction="ltr" writing-mode="lr-tb" unicode-bidi="normal" text-decoration="none" transform="matrix(1 0 0 1 1003.2 2376)">EPFL</text><text fill="#000000" fill-opacity="1" font-family="Apple Symbols,Apple Symbols_MSFontService,sans-serif" font-style="normal" font-variant="normal" font-weight="400" font-stretch="normal" font-size="37" text-anchor="start" direction="ltr" writing-mode="lr-tb" unicode-bidi="normal" text-decoration="none" transform="matrix(1 0 0 1 1003.2 2427)">Lausanne, CH</text><text fill="#000000" fill-opacity="1" font-family="Apple Symbols,Apple Symbols_MSFontService,sans-serif" font-style="normal" font-variant="normal" font-weight="400" font-stretch="normal" font-size="37" text-anchor="start" direction="ltr" writing-mode="lr-tb" unicode-bidi="normal" text-decoration="none" transform="matrix(1 0 0 1 1003.2 2471)">2019</text><text fill="#000000" fill-opacity="1" font-family="Apple Symbols,Apple Symbols_MSFontService,sans-serif" font-style="normal" font-variant="normal" font-weight="400" font-stretch="normal" font-size="37" text-anchor="start" direction="ltr" writing-mode="lr-tb" unicode-bidi="normal" text-decoration="none" transform="matrix(1 0 0 1 1071.95 2471)">-</text><text fill="#000000" fill-opacity="1" font-family="Apple Symbols,Apple Symbols_MSFontService,sans-serif" font-style="normal" font-variant="normal" font-weight="400" font-stretch="normal" font-size="37" text-anchor="start" direction="ltr" writing-mode="lr-tb" unicode-bidi="normal" text-decoration="none" transform="matrix(1 0 0 1 1081.69 2471)">2024</text><text fill="#000000" fill-opacity="1" font-family="Apple Symbols,Apple Symbols_MSFontService,sans-serif" font-style="normal" font-variant="normal" font-weight="700" font-stretch="normal" font-size="60" text-anchor="start" direction="ltr" writing-mode="lr-tb" unicode-bidi="normal" text-decoration="none" transform="matrix(1 0 0 1 602.567 2376)">UNIL</text><text fill="#000000" fill-opacity="1" font-family="Apple Symbols,Apple Symbols_MSFontService,sans-serif" font-style="normal" font-variant="normal" font-weight="400" font-stretch="normal" font-size="37" text-anchor="start" direction="ltr" writing-mode="lr-tb" unicode-bidi="normal" text-decoration="none" transform="matrix(1 0 0 1 602.567 2427)">Lausanne, CH</text><text fill="#000000" fill-opacity="1" font-family="Apple Symbols,Apple Symbols_MSFontService,sans-serif" font-style="normal" font-variant="normal" font-weight="400" font-stretch="normal" font-size="37" text-anchor="start" direction="ltr" writing-mode="lr-tb" unicode-bidi="normal" text-decoration="none" transform="matrix(1 0 0 1 602.567 2471)">2024</text><text fill="#000000" fill-opacity="1" font-family="Apple Symbols,Apple Symbols_MSFontService,sans-serif" font-style="normal" font-variant="normal" font-weight="400" font-stretch="normal" font-size="37" text-anchor="start" direction="ltr" writing-mode="lr-tb" unicode-bidi="normal" text-decoration="none" transform="matrix(1 0 0 1 671.317 2471)">-</text><text fill="#000000" fill-opacity="1" font-family="Apple Symbols,Apple Symbols_MSFontService,sans-serif" font-style="normal" font-variant="normal" font-weight="400" font-stretch="normal" font-size="37" text-anchor="start" direction="ltr" writing-mode="lr-tb" unicode-bidi="normal" text-decoration="none" transform="matrix(1 0 0 1 681.057 2471)">Present</text><text fill="#000000" fill-opacity="1" font-family="Apple Symbols,Apple Symbols_MSFontService,sans-serif" font-style="normal" font-variant="normal" font-weight="700" font-stretch="normal" font-size="60" text-anchor="start" direction="ltr" writing-mode="lr-tb" unicode-bidi="normal" text-decoration="none" transform="matrix(1 0 0 1 1402.78 2376)">Bilkent Uni.</text><text fill="#000000" fill-opacity="1" font-family="Apple Symbols,Apple Symbols_MSFontService,sans-serif" font-style="normal" font-variant="normal" font-weight="400" font-stretch="normal" font-size="37" text-anchor="start" direction="ltr" writing-mode="lr-tb" unicode-bidi="normal" text-decoration="none" transform="matrix(1 0 0 1 1402.78 2427)">Ankara, TR</text><text fill="#000000" fill-opacity="1" font-family="Apple Symbols,Apple Symbols_MSFontService,sans-serif" font-style="normal" font-variant="normal" font-weight="400" font-stretch="normal" font-size="37" text-anchor="start" direction="ltr" writing-mode="lr-tb" unicode-bidi="normal" text-decoration="none" transform="matrix(1 0 0 1 1402.78 2471)">2016</text><text fill="#000000" fill-opacity="1" font-family="Apple Symbols,Apple Symbols_MSFontService,sans-serif" font-style="normal" font-variant="normal" font-weight="400" font-stretch="normal" font-size="37" text-anchor="start" direction="ltr" writing-mode="lr-tb" unicode-bidi="normal" text-decoration="none" transform="matrix(1 0 0 1 1471.53 2471)">-</text><text fill="#000000" fill-opacity="1" font-family="Apple Symbols,Apple Symbols_MSFontService,sans-serif" font-style="normal" font-variant="normal" font-weight="400" font-stretch="normal" font-size="37" text-anchor="start" direction="ltr" writing-mode="lr-tb" unicode-bidi="normal" text-decoration="none" transform="matrix(1 0 0 1 1481.27 2471)">2019</text><text fill="#000000" fill-opacity="1" font-family="Apple Symbols,Apple Symbols_MSFontService,sans-serif" font-style="normal" font-variant="normal" font-weight="700" font-stretch="normal" font-size="60" text-anchor="start" direction="ltr" writing-mode="lr-tb" unicode-bidi="normal" text-decoration="none" transform="matrix(1 0 0 1 1799.89 2375)">Bilkent Uni.</text><text fill="#000000" fill-opacity="1" font-family="Apple Symbols,Apple Symbols_MSFontService,sans-serif" font-style="normal" font-variant="normal" font-weight="400" font-stretch="normal" font-size="37" text-anchor="start" direction="ltr" writing-mode="lr-tb" unicode-bidi="normal" text-decoration="none" transform="matrix(1 0 0 1 1799.89 2426)">Ankara, TR</text><text fill="#000000" fill-opacity="1" font-family="Apple Symbols,Apple Symbols_MSFontService,sans-serif" font-style="normal" font-variant="normal" font-weight="400" font-stretch="normal" font-size="37" text-anchor="start" direction="ltr" writing-mode="lr-tb" unicode-bidi="normal" text-decoration="none" transform="matrix(1 0 0 1 1799.89 2470)">2011</text><text fill="#000000" fill-opacity="1" font-family="Apple Symbols,Apple Symbols_MSFontService,sans-serif" font-style="normal" font-variant="normal" font-weight="400" font-stretch="normal" font-size="37" text-anchor="start" direction="ltr" writing-mode="lr-tb" unicode-bidi="normal" text-decoration="none" transform="matrix(1 0 0 1 1868.64 2470)">-</text><text fill="#000000" fill-opacity="1" font-family="Apple Symbols,Apple Symbols_MSFontService,sans-serif" font-style="normal" font-variant="normal" font-weight="400" font-stretch="normal" font-size="37" text-anchor="start" direction="ltr" writing-mode="lr-tb" unicode-bidi="normal" text-decoration="none" transform="matrix(1 0 0 1 1878.38 2470)">2015</text><text fill="#000000" fill-opacity="1" font-family="Apple Symbols,Apple Symbols_MSFontService,sans-serif" font-style="normal" font-variant="normal" font-weight="700" font-stretch="normal" font-size="60" text-anchor="start" direction="ltr" writing-mode="lr-tb" unicode-bidi="normal" text-decoration="none" transform="matrix(1 0 0 1 2195.73 2376)">Maastricht Uni.</text><text fill="#000000" fill-opacity="1" font-family="Apple Symbols,Apple Symbols_MSFontService,sans-serif" font-style="normal" font-variant="normal" font-weight="400" font-stretch="normal" font-size="37" text-anchor="start" direction="ltr" writing-mode="lr-tb" unicode-bidi="normal" text-decoration="none" transform="matrix(1 0 0 1 2195.73 2427)">Maastricht, NL</text><text fill="#000000" fill-opacity="1" font-family="Apple Symbols,Apple Symbols_MSFontService,sans-serif" font-style="normal" font-variant="normal" font-weight="400" font-stretch="normal" font-size="37" text-anchor="start" direction="ltr" writing-mode="lr-tb" unicode-bidi="normal" text-decoration="none" transform="matrix(1 0 0 1 2195.73 2471)">2013</text><text fill="#000000" fill-opacity="1" font-family="Apple Symbols,Apple Symbols_MSFontService,sans-serif" font-style="normal" font-variant="normal" font-weight="400" font-stretch="normal" font-size="37" text-anchor="start" direction="ltr" writing-mode="lr-tb" unicode-bidi="normal" text-decoration="none" transform="matrix(1 0 0 1 2264.48 2471)">-</text><text fill="#000000" fill-opacity="1" font-family="Apple Symbols,Apple Symbols_MSFontService,sans-serif" font-style="normal" font-variant="normal" font-weight="400" font-stretch="normal" font-size="37" text-anchor="start" direction="ltr" writing-mode="lr-tb" unicode-bidi="normal" text-decoration="none" transform="matrix(1 0 0 1 2274.22 2471)">2014</text><path d="M938 1874.5C938 1847.71 959.714 1826 986.5 1826 1013.29 1826 1035 1847.71 1035 1874.5 1035 1901.29 1013.29 1923 986.5 1923 959.714 1923 938 1901.29 938 1874.5Z" fill="#FF6171" fill-rule="evenodd" fill-opacity="1"/><path d="M1756 2128C1756 2113.64 1767.42 2102 1781.5 2102 1795.58 2102 1807 2113.64 1807 2128 1807 2142.36 1795.58 2154 1781.5 2154 1767.42 2154 1756 2142.36 1756 2128Z" fill="#FF6171" fill-rule="evenodd" fill-opacity="1"/><path d="M556 2029.5C556 2011.55 570.551 1997 588.5 1997 606.449 1997 621 2011.55 621 2029.5 621 2047.45 606.449 2062 588.5 2062 570.551 2062 556 2047.45 556 2029.5Z" fill="#FF6171" fill-rule="evenodd" fill-opacity="1"/><path d="M1353 2028.5C1353 2010.55 1367.55 1996 1385.5 1996 1403.45 1996 1418 2010.55 1418 2028.5 1418 2046.45 1403.45 2061 1385.5 2061 1367.55 2061 1353 2046.45 1353 2028.5Z" fill="#FF6171" fill-rule="evenodd" fill-opacity="1"/><path d="M2156 2215C2156 2202.3 2166.3 2192 2179 2192 2191.7 2192 2202 2202.3 2202 2215 2202 2227.7 2191.7 2238 2179 2238 2166.3 2238 2156 2227.7 2156 2215Z" fill="#FF6171" fill-rule="evenodd" fill-opacity="1"/><text fill="#000000" fill-opacity="1" font-family="Apple Symbols,Apple Symbols_MSFontService,sans-serif" font-style="normal" font-variant="normal" font-weight="700" font-stretch="normal" font-size="55" text-anchor="start" direction="ltr" writing-mode="lr-tb" unicode-bidi="normal" text-decoration="none" transform="matrix(1 0 0 1 627.888 2025)">M</text><text fill="#000000" fill-opacity="1" font-family="Apple Symbols,Apple Symbols_MSFontService,sans-serif" font-style="normal" font-variant="normal" font-weight="700" font-stretch="normal" font-size="55" text-anchor="start" direction="ltr" writing-mode="lr-tb" unicode-bidi="normal" text-decoration="none" transform="matrix(1 0 0 1 658.826 2025)">.Sc. </text><text fill="#000000" fill-opacity="1" font-family="Apple Symbols,Apple Symbols_MSFontService,sans-serif" font-style="normal" font-variant="normal" font-weight="400" font-stretch="normal" font-size="46" text-anchor="start" direction="ltr" writing-mode="lr-tb" unicode-bidi="normal" text-decoration="none" transform="matrix(1 0 0 1 745.909 2025)">i</text><text fill="#000000" fill-opacity="1" font-family="Apple Symbols,Apple Symbols_MSFontService,sans-serif" font-style="normal" font-variant="normal" font-weight="400" font-stretch="normal" font-size="46" text-anchor="start" direction="ltr" writing-mode="lr-tb" unicode-bidi="normal" text-decoration="none" transform="matrix(1 0 0 1 753.357 2025)">n</text><text fill="#000000" fill-opacity="1" font-family="Apple Symbols,Apple Symbols_MSFontService,sans-serif" font-style="normal" font-variant="normal" font-weight="400" font-stretch="normal" font-size="46" text-anchor="start" direction="ltr" writing-mode="lr-tb" unicode-bidi="normal" text-decoration="none" transform="matrix(1 0 0 1 627.888 2083)">Information Systems</text><text fill="#000000" fill-opacity="1" font-family="Apple Symbols,Apple Symbols_MSFontService,sans-serif" font-style="normal" font-variant="normal" font-weight="700" font-stretch="normal" font-size="55" text-anchor="start" direction="ltr" writing-mode="lr-tb" unicode-bidi="normal" text-decoration="none" transform="matrix(1 0 0 1 1048.14 1865)">Ph</text><text fill="#000000" fill-opacity="1" font-family="Apple Symbols,Apple Symbols_MSFontService,sans-serif" font-style="normal" font-variant="normal" font-weight="700" font-stretch="normal" font-size="55" text-anchor="start" direction="ltr" writing-mode="lr-tb" unicode-bidi="normal" text-decoration="none" transform="matrix(1 0 0 1 1093.97 1865)">.D. </text><text fill="#000000" fill-opacity="1" font-family="Apple Symbols,Apple Symbols_MSFontService,sans-serif" font-style="normal" font-variant="normal" font-weight="400" font-stretch="normal" font-size="46" text-anchor="start" direction="ltr" writing-mode="lr-tb" unicode-bidi="normal" text-decoration="none" transform="matrix(1 0 0 1 1163.87 1865)">in</text><text fill="#000000" fill-opacity="1" font-family="Apple Symbols,Apple Symbols_MSFontService,sans-serif" font-style="normal" font-variant="normal" font-weight="400" font-stretch="normal" font-size="46" text-anchor="start" direction="ltr" writing-mode="lr-tb" unicode-bidi="normal" text-decoration="none" transform="matrix(1 0 0 1 1048.14 1923)">Neuroscience</text><text fill="#000000" fill-opacity="1" font-family="Apple Symbols,Apple Symbols_MSFontService,sans-serif" font-style="normal" font-variant="normal" font-weight="700" font-stretch="normal" font-size="55" text-anchor="start" direction="ltr" writing-mode="lr-tb" unicode-bidi="normal" text-decoration="none" transform="matrix(1 0 0 1 1423.62 2019)">M.Sc. </text><text fill="#000000" fill-opacity="1" font-family="Apple Symbols,Apple Symbols_MSFontService,sans-serif" font-style="normal" font-variant="normal" font-weight="400" font-stretch="normal" font-size="46" text-anchor="start" direction="ltr" writing-mode="lr-tb" unicode-bidi="normal" text-decoration="none" transform="matrix(1 0 0 1 1541.64 2019)">i</text><text fill="#000000" fill-opacity="1" font-family="Apple Symbols,Apple Symbols_MSFontService,sans-serif" font-style="normal" font-variant="normal" font-weight="400" font-stretch="normal" font-size="46" text-anchor="start" direction="ltr" writing-mode="lr-tb" unicode-bidi="normal" text-decoration="none" transform="matrix(1 0 0 1 1549.09 2019)">n</text><text fill="#000000" fill-opacity="1" font-family="Apple Symbols,Apple Symbols_MSFontService,sans-serif" font-style="normal" font-variant="normal" font-weight="400" font-stretch="normal" font-size="46" text-anchor="start" direction="ltr" writing-mode="lr-tb" unicode-bidi="normal" text-decoration="none" transform="matrix(1 0 0 1 1423.62 2077)">Neuroscience</text><text fill="#000000" fill-opacity="1" font-family="Apple Symbols,Apple Symbols_MSFontService,sans-serif" font-style="normal" font-variant="normal" font-weight="700" font-stretch="normal" font-size="46" text-anchor="start" direction="ltr" writing-mode="lr-tb" unicode-bidi="normal" text-decoration="none" transform="matrix(1 0 0 1 1815.6 2112)">B.A. </text><text fill="#000000" fill-opacity="1" font-family="Apple Symbols,Apple Symbols_MSFontService,sans-serif" font-style="normal" font-variant="normal" font-weight="400" font-stretch="normal" font-size="46" text-anchor="start" direction="ltr" writing-mode="lr-tb" unicode-bidi="normal" text-decoration="none" transform="matrix(1 0 0 1 1894.66 2112)">in</text><text fill="#000000" fill-opacity="1" font-family="Apple Symbols,Apple Symbols_MSFontService,sans-serif" font-style="normal" font-variant="normal" font-weight="400" font-stretch="normal" font-size="46" text-anchor="start" direction="ltr" writing-mode="lr-tb" unicode-bidi="normal" text-decoration="none" transform="matrix(1 0 0 1 1815.6 2167)">Psychology</text><text fill="#000000" fill-opacity="1" font-family="Apple Symbols,Apple Symbols_MSFontService,sans-serif" font-style="normal" font-variant="normal" font-weight="700" font-stretch="normal" font-size="46" text-anchor="start" direction="ltr" writing-mode="lr-tb" unicode-bidi="normal" text-decoration="none" transform="matrix(1 0 0 1 2206.87 2199)">Exchange</text><text fill="#000000" fill-opacity="1" font-family="Apple Symbols,Apple Symbols_MSFontService,sans-serif" font-style="normal" font-variant="normal" font-weight="400" font-stretch="normal" font-size="46" text-anchor="start" direction="ltr" writing-mode="lr-tb" unicode-bidi="normal" text-decoration="none" transform="matrix(1 0 0 1 2370.72 2199)">in</text><text fill="#000000" fill-opacity="1" font-family="Apple Symbols,Apple Symbols_MSFontService,sans-serif" font-style="normal" font-variant="normal" font-weight="400" font-stretch="normal" font-size="46" text-anchor="start" direction="ltr" writing-mode="lr-tb" unicode-bidi="normal" text-decoration="none" transform="matrix(1 0 0 1 2206.87 2254)">Neuroscience</text><path d="M0 0 1989.69 0.328051" stroke="#F3D776" stroke-width="9.16667" stroke-linecap="butt" stroke-linejoin="miter" stroke-miterlimit="8" stroke-opacity="1" fill="none" fill-rule="evenodd" transform="matrix(1 0 0 -1 584.5 2384.83)"/></g></g></svg>