<svg width="229" height="234" xmlns="http://www.w3.org/2000/svg" xmlns:xlink="http://www.w3.org/1999/xlink" xml:space="preserve" overflow="hidden"><g transform="translate(-747 -5431)"><g><path d="M753.5 5474C753.5 5453.84 769.842 5437.5 790.001 5437.5L935.999 5437.5C956.158 5437.5 972.5 5453.84 972.5 5474L972.5 5621C972.5 5641.16 956.158 5657.5 935.999 5657.5L790.001 5657.5C769.842 5657.5 753.5 5641.16 753.5 5621Z" stroke="#042433" stroke-width="6.875" stroke-linecap="butt" stroke-linejoin="miter" stroke-miterlimit="8" stroke-opacity="1" fill="none" fill-rule="evenodd"/><g><g><g><path d="M796.072 5540.64C795.872 5537.53 795.964 5534.41 796.347 5531.33 796.931 5531.33 807.244 5531.6 807.244 5531.33 807.244 5531.05 806.522 5516.72 807.828 5515.99 813.045 5515.21 818.301 5514.73 823.572 5514.55L823.572 5505.96C823.572 5505.96 810.269 5506.54 810.097 5505.37 809.925 5504.2 807.966 5486.74 809.238 5486.33 810.51 5485.92 829.863 5485.06 829.863 5486.6 829.863 5488.15 830.447 5502.35 830.447 5502.35 830.447 5502.35 844.197 5501.21 844.781 5502.35 845.366 5503.48 845.056 5513.97 846.5 5514.1 847.944 5514.24 870.288 5515.1 870.288 5514.1 870.163 5510.03 870.405 5505.96 871.01 5501.93 871.731 5501.35 887.922 5501.21 887.922 5501.21 887.665 5496.63 887.757 5492.03 888.197 5487.46 888.919 5486.47 910.266 5486.33 910.266 5487.46 910.169 5493.45 909.744 5499.43 908.994 5505.37 908.41 5505.37 892.081 5505.65 892.081 5505.65L892.081 5509.53C892.081 5509.53 918 5510.25 918.31 5511.52 918.619 5512.8 917.588 5530.57 918.31 5530.57 919.031 5530.57 931.2 5530.57 931.338 5531.88 931.475 5533.18 931.338 5543.91 931.338 5543.91 931.338 5543.91 945.088 5544.18 945.535 5545.76 945.981 5547.34 944.538 5591.17 942.956 5591.89 937.515 5592.51 932.012 5592.31 926.628 5591.31 926.216 5590.45 926.628 5562.09 925.906 5561.82 925.185 5561.54 917.175 5561.82 917.175 5561.82 917.175 5561.82 918.035 5592.75 916.9 5593.89 915.766 5595.02 898.441 5594.75 898.441 5594.75 898.441 5594.75 899.747 5606.64 898.888 5606.92 898.028 5607.19 864.238 5608.91 864.238 5607.64 864.238 5606.37 863.963 5590.45 865.235 5589.73 866.506 5589.01 890.156 5589.01 890.019 5588.28 889.881 5587.56 890.019 5581.99 889.606 5581.86 889.194 5581.72 835.5 5582.61 835.5 5583.47 835.202 5585.51 835.202 5587.58 835.5 5589.62 835.947 5589.62 860.147 5590.21 860.285 5590.62 860.707 5596.34 860.707 5602.09 860.285 5607.81 849.888 5608.38 839.468 5608.38 829.072 5607.81 827.938 5607.09 827.491 5593.78 827.491 5593.78 827.491 5593.78 808.447 5591.79 808.31 5590.79 808.172 5589.8 808.31 5562.16 807.725 5561.71 805.837 5561.27 803.873 5561.27 801.985 5561.71 801.985 5562.16 802.569 5589.21 801.985 5589.49 801.4 5589.76 781.36 5591.79 781.36 5589.49 781.36 5587.18 779.916 5543.56 781.188 5542.67 786.085 5541.58 791.063 5540.91 796.072 5540.64Z" fill="#1D1D1B" fill-rule="nonzero" fill-opacity="1"/><path d="M787.788 5548.1C790.567 5547.48 793.398 5547.11 796.244 5547 796.244 5547 796.691 5584.81 796.244 5584.81 795.797 5584.81 788.097 5585.95 787.788 5584.81 787.478 5583.68 787.375 5548.82 787.788 5548.1Z" fill="#C8DB89" fill-rule="nonzero" fill-opacity="1"/><path d="M803.119 5536.69C804.365 5536.18 805.757 5536.18 807.003 5536.69 807.003 5537.13 807.278 5555.87 807.003 5555.87 806.728 5555.87 803.291 5556.59 803.153 5555.87 803.016 5555.15 802.672 5537.07 803.119 5536.69Z" fill="#C8DB89" fill-rule="nonzero" fill-opacity="1"/><path d="M815.7 5491.24C816.319 5490.83 823.435 5490.83 823.71 5491.69 824.143 5494.45 824.143 5497.25 823.71 5500.01 821.042 5500.15 818.368 5500.15 815.7 5500.01 815.072 5497.12 815.072 5494.13 815.7 5491.24Z" fill="#C8DB89" fill-rule="nonzero" fill-opacity="1"/><path d="M894.213 5492C897.176 5491.78 900.155 5491.93 903.081 5492.45 903.285 5494.98 903.193 5497.53 902.806 5500.04 899.949 5500.33 897.07 5500.33 894.213 5500.04 894.063 5497.36 894.063 5494.68 894.213 5492Z" fill="#C8DB89" fill-rule="nonzero" fill-opacity="1"/><path d="M829.45 5507.71C829.45 5507.71 839.178 5506.58 839.178 5507.3 839.202 5511.57 839.536 5515.83 840.175 5520.05 840.76 5520.05 875.856 5519.77 875.994 5519.05 876.131 5518.33 876.716 5507.88 877.128 5507.47 879.971 5506.96 882.88 5506.96 885.722 5507.47 885.722 5508.05 885.31 5515.79 885.997 5515.92 886.685 5516.06 910.644 5516.78 910.919 5517.37 911.194 5517.95 910.335 5549.03 910.335 5549.03 910.335 5549.03 905.041 5543.29 904.594 5543.87 904.147 5544.46 902.875 5546.17 903.46 5546.45 905.966 5548.52 908.268 5550.82 910.335 5553.33 910.469 5555.24 910.469 5557.15 910.335 5559.07 907.682 5556.58 904.856 5554.28 901.878 5552.19 901.603 5552.64 900.744 5554.49 901.156 5554.91 901.569 5555.32 910.335 5563.5 910.335 5564.08 910.335 5564.67 910.335 5569.1 910.335 5569.1 907.531 5566.9 904.617 5564.85 901.603 5562.95 901.191 5562.95 900.022 5565.98 900.606 5566.11 904.019 5567.81 907.235 5569.87 910.197 5572.27 910.197 5573.12 910.472 5577.28 910.472 5577.28 910.472 5577.28 901.225 5571.06 900.813 5571.06 900.4 5571.06 900.091 5574.09 900.091 5574.09 903.702 5576.32 907.148 5578.82 910.403 5581.55 910.491 5582.98 910.491 5584.41 910.403 5585.84 907.61 5583.74 904.643 5581.88 901.535 5580.27 901.122 5580.72 900.263 5582.58 900.95 5582.85 901.638 5583.13 907.413 5587.73 906.828 5587.87 903.697 5588.31 900.527 5588.41 897.375 5588.15 897.375 5587.56 897.375 5575.84 896.791 5575.7 896.206 5575.57 869.016 5574.98 862.691 5575.29 856.366 5575.6 829.622 5577.01 829.175 5578.01 828.728 5579 829.622 5587.46 829.175 5587.46 824.242 5587.37 819.317 5586.99 814.428 5586.33 814.016 5585.74 812.71 5521.87 814.016 5521.46 815.322 5521.05 829.622 5520.6 829.622 5520.19 829.622 5519.77 829.588 5508.12 829.45 5507.71Z" fill="#8EC480" fill-rule="nonzero" fill-opacity="1"/><path d="M827.319 5532.05C833.799 5530.92 840.402 5530.68 846.947 5531.33 847.591 5537.89 847.74 5544.5 847.394 5551.09 840.872 5551.74 834.31 5551.89 827.766 5551.54 827.188 5545.06 827.039 5538.55 827.319 5532.05Z" fill="#1D1D1B" fill-rule="nonzero" fill-opacity="1"/><path d="M834.056 5537.34C836.219 5536.76 838.494 5536.76 840.656 5537.34 840.656 5537.79 841.653 5544.8 840.656 5545.21 838.413 5545.81 836.065 5545.9 833.781 5545.49 833.658 5542.77 833.75 5540.04 834.056 5537.34Z" fill="#FAB900" fill-rule="nonzero" fill-opacity="1"/><path d="M874.275 5530.77C880.767 5529.65 887.381 5529.41 893.938 5530.05 894.582 5536.62 894.731 5543.23 894.385 5549.82 887.863 5550.47 881.301 5550.62 874.756 5550.27 874.167 5543.79 874.006 5537.28 874.275 5530.77Z" fill="#1D1D1B" fill-rule="nonzero" fill-opacity="1"/><path d="M881.013 5536.07C883.175 5535.49 885.45 5535.49 887.613 5536.07 887.613 5536.52 888.61 5543.53 887.613 5543.94 885.37 5544.54 883.021 5544.63 880.738 5544.22 880.614 5541.5 880.706 5538.77 881.013 5536.07Z" fill="#FAB900" fill-rule="nonzero" fill-opacity="1"/><path d="M818.313 5526.03C818.313 5526.89 821.75 5525.31 821.75 5526.03 821.75 5526.75 822.472 5540.06 822.025 5540.37 821.578 5540.67 818.588 5541.09 818.588 5540.37 818.588 5539.64 818.313 5525.76 818.313 5526.03Z" fill="#1D1D1B" fill-rule="nonzero" fill-opacity="1"/><path d="M918 5535.48C918.413 5535.07 924.875 5534.62 924.875 5535.76 924.875 5536.89 924.875 5555.66 924.153 5555.66 921.767 5555.79 919.373 5555.7 917.003 5555.39 916.831 5554.98 917.553 5535.79 918 5535.48Z" fill="#C8DB89" fill-rule="nonzero" fill-opacity="1"/><path d="M933.022 5549.82C933.71 5549.58 939.313 5549.41 939.485 5550.09 939.656 5550.78 937.628 5585.91 937.044 5586.19 935.616 5586.34 934.175 5586.34 932.747 5586.19 932.747 5586.19 932.575 5549.96 933.022 5549.82Z" fill="#C8DB89" fill-rule="nonzero" fill-opacity="1"/><path d="M834.916 5594.92C841.461 5594.63 848.018 5594.78 854.544 5595.37 854.544 5595.95 854.544 5603.1 854.544 5603.1L834.916 5602.69C834.628 5600.11 834.628 5597.5 834.916 5594.92Z" fill="#C8DB89" fill-rule="nonzero" fill-opacity="1"/><path d="M870.288 5595.64C877.144 5595.02 884.03 5594.78 890.913 5594.92 890.913 5595.5 891.497 5601.21 890.913 5601.52 890.328 5601.83 869.875 5602 869.875 5602 869.875 5602 869.875 5595.78 870.288 5595.64Z" fill="#C8DB89" fill-rule="nonzero" fill-opacity="1"/></g></g></g></g></g></svg>