<svg width="284" height="282" xmlns="http://www.w3.org/2000/svg" xmlns:xlink="http://www.w3.org/1999/xlink" xml:space="preserve" overflow="hidden"><g transform="translate(-248 -1672)"><g><g><g><path d="M65.2542 157.016C64.9517 152.309 65.0912 147.584 65.6709 142.903 66.5562 142.903 82.1797 143.32 82.1797 142.903 82.1797 142.487 81.0861 120.77 83.0651 119.676 90.9679 118.496 98.9314 117.766 106.917 117.489L106.917 104.469C106.917 104.469 86.7626 105.355 86.5022 103.584 86.2418 101.813 83.2734 75.3575 85.2003 74.7325 87.1272 74.1076 116.447 72.8056 116.447 75.1491 116.447 77.4927 117.333 99.0011 117.333 99.0011 117.333 99.0011 138.164 97.2825 139.049 99.0011 139.935 100.72 139.466 116.604 141.653 116.812 143.841 117.02 177.692 118.322 177.692 116.812 177.503 110.646 177.869 104.476 178.785 98.3761 179.879 97.4908 204.408 97.2825 204.408 97.2825 204.018 90.3382 204.158 83.3743 204.824 76.4511 205.918 74.9408 238.259 74.7325 238.259 76.4511 238.112 85.5238 237.469 94.5816 236.332 103.584 235.446 103.584 210.709 104.001 210.709 104.001L210.709 109.885C210.709 109.885 249.976 110.979 250.445 112.906 250.914 114.833 249.351 141.757 250.445 141.757 251.539 141.757 269.974 141.757 270.183 143.736 270.391 145.715 270.183 161.964 270.183 161.964 270.183 161.964 291.014 162.38 291.691 164.776 292.368 167.172 290.181 233.572 287.785 234.665 279.541 235.597 271.204 235.299 263.048 233.78 262.423 232.478 263.048 189.513 261.954 189.097 260.861 188.68 248.726 189.097 248.726 189.097 248.726 189.097 250.028 235.967 248.31 237.686 246.591 239.404 220.344 238.988 220.344 238.988 220.344 238.988 222.323 257.007 221.021 257.424 219.719 257.84 168.526 260.444 168.526 258.517 168.526 256.59 168.109 232.478 170.036 231.384 171.963 230.291 207.793 230.291 207.585 229.197 207.376 228.103 207.585 219.667 206.96 219.458 206.335 219.25 124.988 220.604 124.988 221.906 124.536 224.997 124.536 228.137 124.988 231.228 125.665 231.228 162.328 232.113 162.537 232.738 163.177 241.406 163.177 250.11 162.537 258.778 146.786 259.645 131 259.645 115.25 258.778 113.531 257.684 112.854 237.53 112.854 237.53 112.854 237.53 84.0025 234.509 83.7942 232.999 83.5858 231.489 83.7942 189.617 82.9088 188.94 80.0481 188.274 77.0725 188.274 74.2117 188.94 74.2117 189.617 75.0971 230.603 74.2117 231.02 73.3264 231.436 42.9647 234.509 42.9647 231.02 42.9647 227.531 40.7774 161.443 42.7043 160.089 50.1238 158.447 57.666 157.42 65.2542 157.016Z" fill="#1D1D1B" fill-rule="nonzero" fill-opacity="1" transform="matrix(1.00357 0 0 1 223.087 1646.35)"/><path d="M52.7034 168.317C56.9139 167.372 61.2023 166.814 65.5146 166.651 65.5146 166.651 66.1917 223.937 65.5146 223.937 64.8376 223.937 53.1721 225.656 52.7034 223.937 52.2346 222.219 52.0784 169.411 52.7034 168.317Z" fill="#C8DB89" fill-rule="nonzero" fill-opacity="1" transform="matrix(1.00357 0 0 1 223.087 1646.35)"/><path d="M75.9303 151.027C77.818 150.266 79.9275 150.266 81.8152 151.027 81.8152 151.704 82.2318 180.087 81.8152 180.087 81.3986 180.087 76.1907 181.181 75.9824 180.087 75.7741 178.993 75.2533 151.6 75.9303 151.027Z" fill="#C8DB89" fill-rule="nonzero" fill-opacity="1" transform="matrix(1.00357 0 0 1 223.087 1646.35)"/><path d="M94.991 82.1797C95.9284 81.5548 106.709 81.5548 107.125 82.8568 107.782 87.0321 107.782 91.2844 107.125 95.4597 103.083 95.6741 99.0329 95.6741 94.991 95.4597 94.0395 91.0842 94.0395 86.5553 94.991 82.1797Z" fill="#C8DB89" fill-rule="nonzero" fill-opacity="1" transform="matrix(1.00357 0 0 1 223.087 1646.35)"/><path d="M213.938 83.3255C218.428 82.994 222.941 83.2214 227.374 84.0025 227.683 87.8421 227.543 91.7046 226.958 95.5118 222.629 95.9476 218.267 95.9476 213.938 95.5118 213.712 91.4528 213.712 87.3844 213.938 83.3254Z" fill="#C8DB89" fill-rule="nonzero" fill-opacity="1" transform="matrix(1.00357 0 0 1 223.087 1646.35)"/><path d="M115.822 107.125C115.822 107.125 130.561 105.407 130.561 106.5 130.597 112.969 131.102 119.426 132.071 125.821 132.956 125.821 186.128 125.405 186.337 124.311 186.545 123.218 187.43 107.386 188.055 106.761 192.361 105.995 196.769 105.995 201.075 106.761 201.075 107.646 200.45 119.364 201.491 119.572 202.533 119.78 238.832 120.874 239.248 121.759 239.665 122.645 238.363 169.724 238.363 169.724 238.363 169.724 230.343 161.026 229.666 161.912 228.989 162.797 227.062 165.401 227.947 165.818 231.745 168.948 235.233 172.436 238.363 176.233 238.567 179.129 238.567 182.035 238.363 184.93 234.344 181.16 230.063 177.68 225.552 174.515 225.135 175.192 223.833 178.004 224.458 178.629 225.083 179.254 238.363 191.649 238.363 192.534 238.363 193.419 238.363 200.137 238.363 200.137 234.115 196.807 229.7 193.695 225.135 190.815 224.51 190.815 222.739 195.398 223.625 195.607 228.794 198.173 233.667 201.299 238.155 204.929 238.155 206.23 238.571 212.532 238.571 212.532 238.571 212.532 224.562 203.106 223.937 203.106 223.312 203.106 222.844 207.689 222.844 207.689 228.314 211.078 233.535 214.855 238.467 218.99 238.6 221.158 238.6 223.332 238.467 225.5 234.235 222.313 229.74 219.49 225.031 217.063 224.406 217.74 223.104 220.552 224.145 220.969 225.187 221.385 233.936 228.364 233.051 228.572 228.307 229.244 223.504 229.383 218.729 228.989 218.729 228.103 218.729 210.345 217.844 210.136 216.959 209.928 175.765 209.043 166.182 209.511 156.6 209.98 116.083 212.115 115.406 213.626 114.729 215.136 116.083 227.947 115.406 227.947 107.931 227.814 100.471 227.24 93.0641 226.229 92.4392 225.343 90.4602 128.582 92.4392 127.957 94.4182 127.332 116.083 126.655 116.083 126.03 116.083 125.405 116.031 107.75 115.822 107.125Z" fill="#8EC480" fill-rule="nonzero" fill-opacity="1" transform="matrix(1.00357 0 0 1 223.087 1646.35)"/><path d="M112.594 143.997C122.411 142.295 132.414 141.927 142.33 142.903 143.306 152.854 143.532 162.864 143.007 172.848 133.127 173.829 123.186 174.055 113.271 173.525 112.395 163.708 112.169 153.844 112.594 143.997Z" fill="#1D1D1B" fill-rule="nonzero" fill-opacity="1" transform="matrix(1.00357 0 0 1 223.087 1646.35)"/><path d="M122.801 152.017C126.077 151.144 129.524 151.144 132.8 152.017 132.8 152.694 134.31 163.318 132.8 163.943 129.401 164.85 125.844 164.992 122.384 164.359 122.197 160.241 122.337 156.114 122.801 152.017Z" fill="#FAB900" fill-rule="nonzero" fill-opacity="1" transform="matrix(1.00357 0 0 1 223.087 1646.35)"/><path d="M183.733 142.07C193.567 140.364 203.588 139.996 213.521 140.976 214.497 150.927 214.723 160.937 214.199 170.921 204.318 171.902 194.377 172.128 184.462 171.598 183.569 161.782 183.326 151.918 183.733 142.07Z" fill="#1D1D1B" fill-rule="nonzero" fill-opacity="1" transform="matrix(1.00357 0 0 1 223.087 1646.35)"/><path d="M193.94 150.09C197.216 149.217 200.663 149.217 203.939 150.09 203.939 150.767 205.449 161.391 203.939 162.016 200.541 162.923 196.983 163.065 193.523 162.433 193.336 158.314 193.476 154.187 193.94 150.09Z" fill="#FAB900" fill-rule="nonzero" fill-opacity="1" transform="matrix(1.00357 0 0 1 223.087 1646.35)"/><path d="M98.949 134.883C98.949 136.185 104.157 133.789 104.157 134.883 104.157 135.977 105.25 156.131 104.573 156.6 103.896 157.068 99.3656 157.693 99.3656 156.6 99.3656 155.506 98.949 134.466 98.949 134.883Z" fill="#1D1D1B" fill-rule="nonzero" fill-opacity="1" transform="matrix(1.00357 0 0 1 223.087 1646.35)"/><path d="M249.976 149.205C250.601 148.58 260.392 147.903 260.392 149.621 260.392 151.34 260.392 179.775 259.298 179.775 255.683 179.974 252.056 179.834 248.466 179.358 248.206 178.733 249.299 149.673 249.976 149.205Z" fill="#C8DB89" fill-rule="nonzero" fill-opacity="1" transform="matrix(1.00357 0 0 1 223.087 1646.35)"/><path d="M272.735 170.921C273.776 170.557 282.265 170.296 282.525 171.338 282.786 172.38 279.713 225.604 278.828 226.02 276.664 226.254 274.482 226.254 272.318 226.02 272.318 226.02 272.058 171.13 272.735 170.921Z" fill="#C8DB89" fill-rule="nonzero" fill-opacity="1" transform="matrix(1.00357 0 0 1 223.087 1646.35)"/><path d="M124.103 239.248C134.019 238.81 143.954 239.036 153.84 239.925 153.84 240.811 153.84 251.643 153.84 251.643L124.103 251.018C123.667 247.107 123.667 243.159 124.103 239.248Z" fill="#C8DB89" fill-rule="nonzero" fill-opacity="1" transform="matrix(1.00357 0 0 1 223.087 1646.35)"/><path d="M177.692 240.342C188.079 239.4 198.511 239.035 208.939 239.248 208.939 240.134 209.824 248.779 208.939 249.247 208.053 249.716 177.067 249.976 177.067 249.976 177.067 249.976 177.067 240.55 177.692 240.342Z" fill="#C8DB89" fill-rule="nonzero" fill-opacity="1" transform="matrix(1.00357 0 0 1 223.087 1646.35)"/></g></g></g></g></svg>