<svg width="954" height="711" xmlns="http://www.w3.org/2000/svg" xmlns:xlink="http://www.w3.org/1999/xlink" xml:space="preserve" overflow="hidden"><g transform="translate(-407 -7557)"><g><rect x="411" y="7559" width="950" height="686" fill="#BA4C63" fill-opacity="1"/><text fill="#FFFFFF" fill-opacity="1" font-family="Aptos,Aptos_MSFontService,sans-serif" font-style="normal" font-variant="normal" font-weight="400" font-stretch="normal" font-size="78" text-anchor="start" direction="ltr" writing-mode="lr-tb" unicode-bidi="normal" text-decoration="none" transform="matrix(1 0 0 1 659.672 8199)">Neuroscience</text><path d="M630 7866C630 7724.06 745.063 7609 887 7609 1028.94 7609 1144 7724.06 1144 7866 1144 8007.94 1028.94 8123 887 8123 745.063 8123 630 8007.94 630 7866Z" fill="#44B39C" fill-rule="evenodd" fill-opacity="1"/><g><g><g><path d="M322.753 220.575 274.638 220.575C254.094 220.575 237.334 236.794 237.334 257.338L237.334 297.344 213.006 297.344 213.006 265.447C213.006 254.094 213.547 239.497 205.438 230.306 200.572 224.9 195.166 220.575 189.219 216.25 184.894 213.547 180.569 210.303 177.325 205.978 175.703 203.816 174.622 201.113 173.541 198.409 180.028 195.706 187.056 195.166 193.544 195.706 196.788 195.706 199.491 193.544 199.491 190.3 200.031 187.056 197.869 184.353 195.166 183.272 187.056 182.191 178.406 183.272 170.297 185.975 170.297 184.894 170.297 183.813 169.756 183.272 169.216 178.406 170.297 173.541 171.378 168.675 175.703 157.322 186.516 152.456 196.788 148.672 198.409 148.131 200.572 147.591 203.275 147.05L204.897 146.509 205.438 146.509C208.141 147.05 210.303 147.591 212.466 148.131L215.169 148.672 218.413 149.213C223.819 155.7 226.522 163.809 225.981 171.919 225.441 180.028 221.656 187.597 215.169 193.003 213.006 195.166 212.466 198.95 214.628 201.653 216.791 203.816 220.034 204.356 222.738 202.194 226.522 198.95 229.766 195.166 231.928 190.841L232.469 190.841C241.659 189.759 250.85 187.056 258.959 182.731 260.041 181.65 261.122 180.569 261.663 178.947 262.203 177.325 261.663 175.703 260.581 174.622 258.419 171.919 255.175 171.378 252.472 173 247.606 175.703 242.741 177.866 236.794 178.406 237.334 176.784 237.875 174.622 237.875 173 238.416 165.972 237.334 158.944 234.631 152.997 238.956 153.538 243.281 154.078 247.606 154.078 251.391 154.078 255.175 153.538 258.959 152.997 265.988 161.647 275.178 167.594 285.991 170.297 300.047 177.325 313.022 186.516 313.022 201.653 313.022 203.816 314.103 206.519 315.725 207.6 317.888 208.681 320.05 208.681 322.213 207.6 324.375 206.519 325.456 203.816 324.916 201.653 324.916 189.759 319.509 178.947 310.319 171.919 317.888 171.378 324.375 167.594 329.241 162.188 331.403 159.484 330.863 155.7 328.7 153.538 325.997 151.375 322.213 151.916 320.05 154.078 317.347 157.322 310.319 160.025 300.047 159.484 289.775 159.484 279.503 155.7 271.934 149.213 280.584 145.428 288.153 138.941 293.019 130.831 294.641 128.128 293.559 124.344 290.856 122.181 288.153 120.559 284.369 121.641 282.747 124.344 273.556 141.103 254.094 145.969 223.278 138.4 230.306 132.453 233.55 123.263 232.469 114.072 232.469 111.909 231.388 109.747 229.225 108.666 227.063 107.584 224.9 107.584 222.738 109.206 220.575 110.288 220.034 112.991 220.034 115.153 220.575 129.209 213.006 131.913 200.572 135.697 198.95 136.238 196.788 136.778 195.166 137.319 191.922 129.75 184.894 123.803 176.784 121.641 174.622 121.1 172.459 121.641 170.838 123.263 169.216 124.884 168.675 127.047 169.216 129.75 169.756 131.913 171.378 133.534 174.081 134.075 178.406 135.156 181.65 138.4 183.813 142.184L183.813 142.725C173.541 147.05 165.431 155.159 161.647 165.431 160.566 167.594 160.025 170.297 160.025 173 158.944 171.919 157.863 170.838 157.322 169.216 155.159 164.891 153.538 159.484 152.997 154.619 152.456 152.456 150.834 150.294 149.213 149.753 147.05 148.672 144.888 149.213 143.266 150.834 141.644 152.456 140.563 154.619 141.644 156.781 142.725 163.269 144.347 169.216 147.591 174.622 150.834 180.028 155.159 184.353 161.106 187.056 161.647 194.625 164.35 202.194 168.134 209.222 164.35 214.088 159.484 217.872 154.078 221.116 152.456 222.197 151.375 224.359 150.834 226.522 150.834 228.684 151.916 230.847 154.078 231.928 156.241 233.009 158.403 233.009 160.025 231.388 165.431 227.603 170.297 223.819 174.622 218.953 177.866 221.656 181.109 223.819 184.353 225.981 189.759 229.225 194.084 233.009 198.409 237.875 203.275 243.822 203.275 255.175 203.275 264.906L203.275 297.344 178.406 297.344C178.406 257.338 158.944 255.175 156.781 254.094 148.672 251.931 127.588 240.578 122.722 217.872 122.181 216.791 122.181 215.169 122.181 214.088 112.991 201.113 113.531 183.272 123.803 170.838 122.722 167.053 122.181 163.269 122.181 159.484 122.181 142.184 134.616 127.047 151.916 123.803 157.322 108.666 171.378 98.3938 187.056 98.9344 189.759 98.9344 193.003 99.475 195.706 100.016 202.194 92.4469 211.384 88.1219 221.656 87.0406 231.928 86.5 241.659 89.7438 249.228 96.7719 258.959 90.2844 270.853 88.6625 281.666 91.9063 293.019 95.15 301.669 103.8 305.453 114.613L307.616 114.613C328.159 114.613 344.378 130.831 344.919 151.375L344.919 152.997C357.353 160.025 364.381 173.541 363.3 187.597 358.975 206.519 342.216 221.116 322.753 220.575ZM437.906 277.341 400.603 213.006 400.603 210.844C402.766 151.375 372.491 95.6906 321.131 65.9563 269.772 35.6813 206.519 35.6813 155.159 65.9563 103.8 95.6906 73.525 151.375 75.6875 210.844 75.6875 261.663 98.9344 309.778 139.481 340.594L139.481 475.75 310.319 475.75 310.319 411.416 336.809 411.416C354.109 411.416 370.328 404.928 382.222 392.494 394.116 380.6 400.603 363.841 400.603 347.081L400.603 314.644 424.391 314.644C438.447 313.563 450.881 297.344 437.906 277.341Z" fill="#000000" fill-rule="nonzero" fill-opacity="1" transform="matrix(1 0 0 1.00193 649 7600)"/></g></g></g></g></g></svg>